<svg width="100%" height="100%" id="svg" viewBox="0 0 1440 600" xmlns="http://www.w3.org/2000/svg" class="transition duration-300 ease-in-out delay-150"><path d="M 0,600 C 0,600 0,120 0,120 C 68.90965304019238,123.18378564067332 137.81930608038476,126.36757128134664 206,135 C 274.18069391961524,143.63242871865336 341.63242871865333,157.7135005152868 413,157 C 484.36757128134667,156.2864994847132 559.6509790450018,140.77842665750603 622,125 C 684.3490209549982,109.22157334249397 733.7636551013397,93.17279285468909 806,97 C 878.2363448986603,100.82720714531091 973.2944005496395,124.53040192373757 1039,130 C 1104.7055994503605,135.46959807626243 1141.058742700103,122.7055994503607 1203,118 C 1264.941257299897,113.2944005496393 1352.4706286499486,116.64720027481965 1440,120 C 1440,120 1440,600 1440,600 Z" stroke="none" stroke-width="0" fill="#9e6bf5" fill-opacity="0.265" class="transition-all duration-300 ease-in-out delay-150 path-0" transform="rotate(-180 720 300)"></path><path d="M 0,600 C 0,600 0,240 0,240 C 89.30058399175542,249.42493988320166 178.60116798351083,258.8498797664033 241,242 C 303.39883201648917,225.15012023359668 338.89591205771217,182.02542081758844 395,196 C 451.10408794228783,209.97457918241156 527.8151837856406,281.04843696324286 604,284 C 680.1848162143594,286.95156303675714 755.8433527997253,221.78083132944008 821,215 C 886.1566472002747,208.21916867055992 940.8114050154586,259.82823771899695 1006,262 C 1071.1885949845414,264.17176228100305 1146.9110271384402,216.90621779457229 1221,205 C 1295.0889728615598,193.09378220542771 1367.54448643078,216.54689110271386 1440,240 C 1440,240 1440,600 1440,600 Z" stroke="none" stroke-width="0" fill="#9e6bf5" fill-opacity="0.4" class="transition-all duration-300 ease-in-out delay-150 path-1" transform="rotate(-180 720 300)"></path><path d="M 0,600 C 0,600 0,360 0,360 C 79.24768120920643,356.90827894194433 158.49536241841287,353.8165578838887 223,362 C 287.50463758158713,370.1834421161113 337.2662315355548,389.64204740638957 405,375 C 472.7337684644452,360.35795259361043 558.4397114393679,311.6152524905531 628,319 C 697.5602885606321,326.3847475094469 750.9749227069736,389.89694263139813 814,391 C 877.0250772930264,392.10305736860187 949.6605977327376,330.79697698385434 1030,320 C 1110.3394022672624,309.20302301614566 1198.382686362075,348.91514943318447 1268,364 C 1337.617313637925,379.08485056681553 1388.8086568189624,369.54242528340774 1440,360 C 1440,360 1440,600 1440,600 Z" stroke="none" stroke-width="0" fill="#9e6bf5" fill-opacity="0.53" class="transition-all duration-300 ease-in-out delay-150 path-2" transform="rotate(-180 720 300)"></path><path d="M 0,600 C 0,600 0,480 0,480 C 77.66334592923394,477.1776021985572 155.32669185846788,474.3552043971144 220,483 C 284.6733081415321,491.6447956028856 336.3565784953624,511.75678461009966 409,519 C 481.6434215046376,526.2432153899003 575.2469941600824,520.617657162487 643,507 C 710.7530058399176,493.38234283751297 752.6554448643078,471.7725867399519 808,464 C 863.3445551356922,456.2274132600481 932.1312263826862,462.29199587770523 1003,469 C 1073.8687736173138,475.70800412229477 1146.8196496049468,483.05942974922704 1220,485 C 1293.1803503950532,486.94057025077296 1366.5901751975266,483.47028512538645 1440,480 C 1440,480 1440,600 1440,600 Z" stroke="none" stroke-width="0" fill="#9e6bf5" fill-opacity="1" class="transition-all duration-300 ease-in-out delay-150 path-3" transform="rotate(-180 720 300)"></path></svg>
